<svg width="117" height="80" viewBox="0 0 117 80" fill="none" xmlns="http://www.w3.org/2000/svg">
<path d="M68.5 10.0001C68.5 10.0001 78.5 63.5001 68.5 66.0001C58.5 68.5001 64 70.0001 64 70.0001H82C82 70.0001 83.5 67.0001 77.5 66.0001C71.5 65.0001 77.5 20.0001 77.5 20.0001C77.5 20.0001 89.5 14.0001 96.5 20.0001C103.5 26.0001 99 6.00008 96.5 10.0001C94 14.0001 68.5 10.0001 68.5 10.0001Z" fill="white" stroke="white"/>
<path d="M68 9.99992C68 9.99992 46.5 18.4999 30.5 9.99992C14.5 1.49992 42.5 68.4999 30.5 64.4999C18.5 60.4999 20.5 67.9999 26.5 69.9999C32.5 71.9999 46.5 69.9999 46.5 69.9999C46.5 69.9999 51 64.4999 42.5 64.4999C34 64.4999 42.5 42.9999 42.5 42.9999C42.5 42.9999 71 49.4999 60 42.9999C49 36.4999 66.5 28.4999 60 30.9999C53.5 33.4999 42.5 30.9999 42.5 30.9999C42.5 30.9999 38.5 18.9999 42.5 24.4999C46.5 29.9999 67 10.4999 70.5 24.4999C74 38.4999 68 9.99992 68 9.99992Z" fill="white" stroke="white"/>
</svg>
